<svg viewBox="0 0 1528 676" fill="none" xmlns="http://www.w3.org/2000/svg">
<path d="M1164.5 646.625L807.68 441.601C785.885 429.024 785.885 397.581 807.68 385.09L1105.74 212.973L1511.49 446.252C1533.29 458.83 1533.29 490.272 1511.49 502.763L1262.36 646.539C1232.12 664.112 1194.82 664.112 1164.5 646.625Z" fill="#2F97C8"/>
<path d="M893.05 293.518H873.236V401.199H893.05V293.518Z" fill="#167499"/>
<path d="M281.931 644.471L17.2915 494.58C-4.50341 482.002 -4.50341 450.56 17.2915 438.069L263.755 295.758C295.715 277.323 334.997 277.323 366.957 295.672L628.927 444.099C650.722 456.676 650.722 488.119 628.927 500.61L379.879 644.471C349.556 661.958 312.255 661.958 281.931 644.471Z" fill="#2F97C8"/>
<path d="M1022.18 677.723L865.311 587.616C834.988 570.128 797.687 570.128 767.363 587.616L611.267 677.723H1022.18Z" fill="#2F97C8"/>
<path d="M1365.82 339.175C1365.82 291.881 1432.75 187.388 1432.75 187.388C1432.75 187.388 1499.69 291.881 1499.69 339.175C1499.69 386.468 1469.71 424.802 1432.75 424.802C1395.8 424.802 1365.82 386.468 1365.82 339.175Z" fill="#167499"/>
<path d="M841.362 263.54C841.362 233.992 883.229 168.608 883.229 168.608C883.229 168.608 925.096 233.992 925.096 263.54C925.096 293.087 906.316 317.122 883.229 317.122C860.142 317.122 841.362 293.087 841.362 263.54Z" fill="#167499"/>
<path d="M919.755 174.639C919.755 127.345 986.691 22.8518 986.691 22.8518C986.691 22.8518 1053.63 127.345 1053.63 174.639C1053.63 221.932 1023.65 260.266 986.691 260.266C949.734 260.266 919.755 221.932 919.755 174.639Z" fill="#2F97C8"/>
<path d="M986.949 354.25L882.799 293.69L1075.68 182.392L1179.74 242.865L986.949 354.25Z" fill="#7FC8E2"/>
<path d="M986.949 354.25L882.799 293.69L1075.68 182.392L1179.74 242.865L986.949 354.25Z" fill="url(#paint0_linear)"/>
<path d="M986.949 475.628L882.713 414.982V293.69L986.949 354.336V475.628Z" fill="#93CFE5"/>
<path d="M1179.31 364.07L986.519 475.369V354.422L1179.31 243.037V364.07Z" fill="#6EBDD3"/>
<path d="M1208.34 380.955L1015.46 269.57L1208.34 158.271L1401.14 269.57L1208.34 380.955Z" fill="#A2D8EA"/>
<path d="M1208.09 603.725L1015.29 492.426V269.742L1208.09 381.127V603.725Z" fill="#93CFE5"/>
<path d="M1400.71 492.426L1207.91 603.725V381.127L1400.71 269.742V492.426Z" fill="#7FC8E2"/>
<path d="M1309.13 545.836L1365.13 512.842V404.817L1309.13 437.896V545.836Z" fill="#2F97C8"/>
<path d="M1316.46 541.27L1357.81 516.805V418.945L1316.46 443.41V541.27Z" fill="#44AFE3"/>
<path d="M1071.37 386.899L1043.72 370.531V317.122L1071.37 333.489V386.899Z" fill="#2F97C8"/>
<mask id="mask0" mask-type="alpha" maskUnits="userSpaceOnUse" x="1043" y="317" width="29" height="70">
<path d="M1071.37 386.899L1043.72 370.531V317.122L1071.37 333.489V386.899Z" fill="#2F97C8"/>
</mask>
<g mask="url(#mask0)">
<path d="M1074.82 385.176L1047.16 368.808V315.399L1074.82 331.766V385.176Z" fill="#44AFE3"/>
</g>
<path d="M1122.65 415.777L1095 399.41V346L1122.65 362.367V415.777Z" fill="#2F97C8"/>
<mask id="mask1" mask-type="alpha" maskUnits="userSpaceOnUse" x="1095" y="346" width="28" height="70">
<path d="M1122.65 415.777L1095 399.41V346L1122.65 362.367V415.777Z" fill="#2F97C8"/>
</mask>
<g mask="url(#mask1)">
<path d="M1126.1 414.054L1098.45 397.687V344.277L1126.1 360.645V414.054Z" fill="#44AFE3"/>
</g>
<path d="M1174.65 445.777L1147 429.41V376L1174.65 392.367V445.777Z" fill="#2F97C8"/>
<mask id="mask2" mask-type="alpha" maskUnits="userSpaceOnUse" x="1147" y="376" width="28" height="70">
<path d="M1174.65 445.777L1147 429.41V376L1174.65 392.367V445.777Z" fill="#2F97C8"/>
</mask>
<g mask="url(#mask2)">
<path d="M1178.1 444.054L1150.45 427.687V374.277L1178.1 390.645V444.054Z" fill="#44AFE3"/>
</g>
<path d="M1071.37 469.777L1043.72 453.41V400L1071.37 416.367V469.777Z" fill="#2F97C8"/>
<mask id="mask3" mask-type="alpha" maskUnits="userSpaceOnUse" x="1043" y="400" width="29" height="70">
<path d="M1071.37 469.777L1043.72 453.41V400L1071.37 416.367V469.777Z" fill="#2F97C8"/>
</mask>
<g mask="url(#mask3)">
<path d="M1074.82 468.054L1047.16 451.687V398.277L1074.82 414.645V468.054Z" fill="#44AFE3"/>
</g>
<path d="M1122.65 498.655L1095 482.288V428.878L1122.65 445.246V498.655Z" fill="#2F97C8"/>
<mask id="mask4" mask-type="alpha" maskUnits="userSpaceOnUse" x="1095" y="428" width="28" height="71">
<path d="M1122.65 498.655L1095 482.288V428.878L1122.65 445.246V498.655Z" fill="#2F97C8"/>
</mask>
<g mask="url(#mask4)">
<path d="M1126.1 496.932L1098.45 480.565V427.155L1126.1 443.523V496.932Z" fill="#44AFE3"/>
</g>
<path d="M1174.65 528.655L1147 512.288V458.878L1174.65 475.246V528.655Z" fill="#2F97C8"/>
<mask id="mask5" mask-type="alpha" maskUnits="userSpaceOnUse" x="1147" y="458" width="28" height="71">
<path d="M1174.65 528.655L1147 512.288V458.878L1174.65 475.246V528.655Z" fill="#2F97C8"/>
</mask>
<g mask="url(#mask5)">
<path d="M1178.1 526.932L1150.45 510.565V457.155L1178.1 473.523V526.932Z" fill="#44AFE3"/>
</g>
<path d="M924.924 389.483L897.271 373.116V319.706L924.924 336.074V389.483Z" fill="#44AFE3"/>
<mask id="mask6" mask-type="alpha" maskUnits="userSpaceOnUse" x="897" y="320" width="28" height="70">
<path d="M924.653 389.777L897 373.41V320L924.653 336.367V389.777Z" fill="#44AFE3"/>
</mask>
<g mask="url(#mask6)">
<path d="M928.37 387.76L900.717 371.393V317.983L928.37 334.351V387.76Z" fill="#51B9E7"/>
</g>
<path d="M967.135 413.604L939.482 397.236V343.826L967.135 360.194V413.604Z" fill="#2F97C8"/>
<path d="M967.135 413.604L939.482 397.236V343.827L967.135 360.194V413.604Z" fill="#44AFE3"/>
<mask id="mask7" mask-type="alpha" maskUnits="userSpaceOnUse" x="939" y="344" width="28" height="70">
<path d="M966.653 413.777L939 397.41V344L966.653 360.367V413.777Z" fill="#44AFE3"/>
</mask>
<g mask="url(#mask7)">
<path d="M970.581 411.881L942.928 395.513V342.104L970.581 358.471V411.881Z" fill="#51B9E7"/>
</g>
<path d="M1345.23 386.899L1372.88 370.531V317.122L1345.23 333.489V386.899Z" fill="#2F97C8"/>
<path d="M1241.86 445.477L1269.51 429.11V375.7L1241.86 392.067V445.477Z" fill="#2F97C8"/>
<mask id="mask8" mask-type="alpha" maskUnits="userSpaceOnUse" x="1241" y="375" width="29" height="71">
<path d="M1241.86 445.477L1269.51 429.11V375.7L1241.86 392.067V445.477Z" fill="#2F97C8"/>
</mask>
<g mask="url(#mask8)">
<path d="M1238.41 443.754L1266.06 427.387V373.977L1238.41 390.345V443.754Z" fill="#44AFE3"/>
</g>
<path d="M1241.86 527.777L1269.51 511.41V458L1241.86 474.367V527.777Z" fill="#2F97C8"/>
<mask id="mask9" mask-type="alpha" maskUnits="userSpaceOnUse" x="1241" y="458" width="29" height="70">
<path d="M1241.86 527.777L1269.51 511.41V458L1241.86 474.367V527.777Z" fill="#2F97C8"/>
</mask>
<g mask="url(#mask9)">
<path d="M1238.41 526.054L1266.06 509.687V456.277L1238.41 472.645V526.054Z" fill="#44AFE3"/>
</g>
<path d="M1294 415.777L1321.65 399.41V346L1294 362.367V415.777Z" fill="#2F97C8"/>
<mask id="mask10" mask-type="alpha" maskUnits="userSpaceOnUse" x="1294" y="346" width="28" height="70">
<path d="M1294 415.777L1321.65 399.41V346L1294 362.367V415.777Z" fill="#2F97C8"/>
</mask>
<g mask="url(#mask10)">
<path d="M1290.55 414.054L1318.21 397.687V344.277L1290.55 360.645V414.054Z" fill="#44AFE3"/>
</g>
<path d="M1345 386.777L1372.65 370.41V317L1345 333.367V386.777Z" fill="#2F97C8"/>
<mask id="mask11" mask-type="alpha" maskUnits="userSpaceOnUse" x="1345" y="317" width="28" height="70">
<path d="M1345 386.777L1372.65 370.41V317L1345 333.367V386.777Z" fill="#2F97C8"/>
</mask>
<g mask="url(#mask11)">
<path d="M1341.55 385.054L1369.21 368.687V315.277L1341.55 331.645V385.054Z" fill="#44AFE3"/>
</g>
<path d="M1442.66 401.199H1422.85V480.452H1442.66V401.199Z" fill="#167499"/>
<path d="M1208.34 380.524L1015.46 269.139L1208.34 157.84L1401.14 269.139L1208.34 380.524Z" fill="url(#paint1_linear)"/>
<g filter="url(#filter0_f)">
<ellipse cx="1207.5" cy="261.5" rx="73.5" ry="40.5" fill="#51B5D7" fill-opacity="0.43"/>
</g>
<g filter="url(#filter1_f)">
<ellipse cx="1205.5" cy="257.5" rx="28.5" ry="15.5" fill="#578FA1" fill-opacity="0.81"/>
</g>
<path d="M1221.01 10.7916C1201.97 -0.234934 1184.57 -1.95783 1171.39 4.15844L1171.3 4.0723L1170.44 4.58916C1169.15 5.27832 1167.86 5.96748 1166.56 6.82892L1149.16 16.9078L1153.3 22.1627C1149.08 30.5187 1146.75 41.1145 1146.75 53.6916C1146.75 85.9096 1181.04 164.301 1203 211.164L1186.55 220.64L1205.24 254.839L1227.47 242.09C1227.81 241.917 1228.07 241.745 1228.33 241.573C1228.5 241.487 1228.59 241.401 1228.76 241.228C1247.97 223.827 1295.01 176.964 1295.01 139.233C1295.18 91.9398 1262.01 34.3952 1221.01 10.7916ZM1221.27 147.848C1198.35 134.581 1179.74 102.449 1179.74 76.003C1179.74 49.5566 1198.35 38.7886 1221.27 52.0548C1244.18 65.3211 1262.79 97.453 1262.79 123.899C1262.79 150.346 1244.18 161.114 1221.27 147.848Z" fill="#F7931E"/>
<g opacity="0.75">
<path opacity="0.75" d="M1221.01 10.7916C1201.97 -0.234934 1184.57 -1.95783 1171.39 4.15844L1171.3 4.0723L1170.44 4.58916C1169.15 5.27832 1167.86 5.96748 1166.56 6.82892L1149.16 16.9078L1153.3 22.1627C1149.08 30.5187 1146.75 41.1145 1146.75 53.6916C1146.75 85.9096 1181.04 164.301 1203 211.164L1186.55 220.64L1205.24 254.839L1227.47 242.09C1227.81 241.917 1228.07 241.745 1228.33 241.573C1228.5 241.487 1228.59 241.401 1228.76 241.228C1247.97 223.827 1295.01 176.964 1295.01 139.233C1295.18 91.9398 1262.01 34.3952 1221.01 10.7916ZM1221.27 147.848C1198.35 134.581 1179.74 102.449 1179.74 76.003C1179.74 49.5566 1198.35 38.7886 1221.27 52.0548C1244.18 65.3211 1262.79 97.453 1262.79 123.899C1262.79 150.346 1244.18 161.114 1221.27 147.848Z" fill="white"/>
</g>
<path d="M1198.7 23.541C1157.78 -0.148787 1124.52 19.0615 1124.52 66.3548C1124.52 104.086 1171.65 205.306 1190.77 244.846C1194.73 253.03 1202.57 257.596 1206.62 253.978C1225.83 236.577 1272.87 189.714 1272.87 151.983C1272.87 104.689 1239.7 47.2307 1198.7 23.541ZM1198.95 160.683C1176.04 147.417 1157.43 115.285 1157.43 88.8386C1157.43 62.3922 1176.04 51.6241 1198.95 64.8904C1221.87 78.1566 1240.48 110.289 1240.48 136.735C1240.48 163.181 1221.87 173.863 1198.95 160.683Z" fill="#F7931E"/>
<path d="M1198.7 23.541C1157.78 -0.148787 1124.52 19.0615 1124.52 66.3548C1124.52 104.086 1171.65 205.306 1190.77 244.846C1194.73 253.03 1202.57 257.596 1206.62 253.978C1225.83 236.577 1272.87 189.714 1272.87 151.983C1272.87 104.689 1239.7 47.2307 1198.7 23.541ZM1198.95 160.683C1176.04 147.417 1157.43 115.285 1157.43 88.8386C1157.43 62.3922 1176.04 51.6241 1198.95 64.8904C1221.87 78.1566 1240.48 110.289 1240.48 136.735C1240.48 163.181 1221.87 173.863 1198.95 160.683Z" fill="url(#paint2_radial)"/>
<path opacity="0.48" d="M1198.7 23.541C1157.78 -0.148787 1124.52 19.0615 1124.52 66.3548C1124.52 104.086 1171.65 205.306 1190.77 244.846C1194.73 253.03 1202.57 257.596 1206.62 253.978C1225.83 236.577 1272.87 189.714 1272.87 151.983C1272.87 104.689 1239.7 47.2307 1198.7 23.541ZM1198.95 160.683C1176.04 147.417 1157.43 115.285 1157.43 88.8386C1157.43 62.3922 1176.04 51.6241 1198.95 64.8904C1221.87 78.1566 1240.48 110.289 1240.48 136.735C1240.48 163.181 1221.87 173.863 1198.95 160.683Z" fill="url(#paint3_radial)"/>
<defs>
<filter id="filter0_f" x="1104" y="191" width="207" height="141" filterUnits="userSpaceOnUse" color-interpolation-filters="sRGB">
<feFlood flood-opacity="0" result="BackgroundImageFix"/>
<feBlend mode="normal" in="SourceGraphic" in2="BackgroundImageFix" result="shape"/>
<feGaussianBlur stdDeviation="15" result="effect1_foregroundBlur"/>
</filter>
<filter id="filter1_f" x="1147" y="212" width="117" height="91" filterUnits="userSpaceOnUse" color-interpolation-filters="sRGB">
<feFlood flood-opacity="0" result="BackgroundImageFix"/>
<feBlend mode="normal" in="SourceGraphic" in2="BackgroundImageFix" result="shape"/>
<feGaussianBlur stdDeviation="15" result="effect1_foregroundBlur"/>
</filter>
<linearGradient id="paint0_linear" x1="1031.27" y1="182.392" x2="1031.27" y2="354.25" gradientUnits="userSpaceOnUse">
<stop stop-color="#D4EBF3"/>
<stop offset="1" stop-color="#A2D8EA"/>
</linearGradient>
<linearGradient id="paint1_linear" x1="1176" y1="231" x2="1208.3" y2="380.524" gradientUnits="userSpaceOnUse">
<stop stop-color="#D4EBF3"/>
<stop offset="0.841946" stop-color="#B6E0EF" stop-opacity="0"/>
</linearGradient>
<radialGradient id="paint2_radial" cx="0" cy="0" r="1" gradientUnits="userSpaceOnUse" gradientTransform="translate(1198.7 138.719) rotate(30.0003) scale(107.689 96.9929)">
<stop stop-color="#E74249" stop-opacity="0"/>
<stop offset="0.9322" stop-color="#E74249" stop-opacity="0.8536"/>
<stop offset="0.9512" stop-color="#E84547" stop-opacity="0.8945"/>
<stop offset="0.9676" stop-color="#EA5042" stop-opacity="0.93"/>
<stop offset="0.9831" stop-color="#ED6238" stop-opacity="0.9634"/>
<stop offset="0.9979" stop-color="#F27B2B" stop-opacity="0.9954"/>
<stop offset="1" stop-color="#F37F29"/>
</radialGradient>
<radialGradient id="paint3_radial" cx="0" cy="0" r="1" gradientUnits="userSpaceOnUse" gradientTransform="translate(1198.7 138.719) rotate(30.0003) scale(107.689 96.9929)">
<stop stop-color="#E74249" stop-opacity="0"/>
<stop offset="0.9322" stop-color="#E74249" stop-opacity="0.8536"/>
<stop offset="0.9512" stop-color="#E84547" stop-opacity="0.8945"/>
<stop offset="0.9676" stop-color="#EA5042" stop-opacity="0.93"/>
<stop offset="0.9831" stop-color="#ED6238" stop-opacity="0.9634"/>
<stop offset="0.9979" stop-color="#F27B2B" stop-opacity="0.9954"/>
<stop offset="1" stop-color="#F37F29"/>
</radialGradient>
</defs>
</svg>
