<?xml version="1.0" encoding="UTF-8"?><svg width="130px" height="130px" viewBox="0 0 130 130" version="1.1" xmlns="http://www.w3.org/2000/svg" xmlns:xlink="http://www.w3.org/1999/xlink"><!-- Generator:Sketch 55.2(78181) - https://sketchapp.com --><title>play</title><desc>Created with Sketch.</desc><defs><circle id="path-1" cx="50" cy="50" r="50"></circle><filter x="-24.0%" y="-21.0%" width="148.0%" height="148.0%" filterUnits="objectBoundingBox" id="filter-2"><feOffset dx="0" dy="3" in="SourceAlpha" result="shadowOffsetOuter1"></feOffset><feGaussianBlur stdDeviation="7.5" in="shadowOffsetOuter1" result="shadowBlurOuter1"></feGaussianBlur><feColorMatrix values="0 0 0 0 0 0 0 0 0 0 0 0 0 0 0 0 0 0 .2 0" type="matrix" in="shadowBlurOuter1"></feColorMatrix></filter></defs><g id="online" stroke="none" stroke-width="1" fill="none" fill-rule="evenodd"><g id="play" transform="translate(-5.000000,-8.000000)"><g id="Group-4-Copy" transform="translate(20.000000,20.000000)"><g id="Oval" opacity="0.900000036"><use fill="black" fill-opacity="1" filter="url(#filter-2)" xlink:href="#path-1"></use><use fill="#FCFCFC" fill-rule="evenodd" xlink:href="#path-1"></use></g><path d="M59.6083697,32.5907306 L79.4533931,67.5179718 C80.2718946,68.9585346 79.7676144,70.7898681 78.3270516,71.6083697 C77.8752922,71.8650512 77.3646117,72 76.8450234,72 L37.1549766,72 C35.4981224,72 34.1549766,70.6568542 34.1549766,69 C34.1549766,68.4804117 34.2899254,67.9697312 34.5466069,67.5179718 L54.3916303,32.5907306 C55.2101319,31.1501678 57.0414654,30.6458876 58.4820282,31.4643892 C58.9521112,31.7314818 59.3412771,32.1206476 59.6083697,32.5907306 Z" id="Triangle" fill="#3381DC" transform="translate(57.000000,50.000000) rotate(-270.000000) translate(-57.000000,-50.000000) "></path></g></g></g></svg>